<svg id="Capa_1" enable-background="new 0 0 512 512" height="512" viewBox="0 0 512 512" width="512" xmlns="http://www.w3.org/2000/svg"><g><path d="m256 196h-15v60h15 15v-60z" fill="#ffc34d"/><path d="m256 196h15v60h-15z" fill="#f93"/><path d="m256 241c-74.443 0-135 60.557-135 135s60.557 136 135 136 135-61.557 135-136-60.557-135-135-135z" fill="#fd3"/><path d="m391 376c0-74.443-60.557-135-135-135v271c74.443 0 135-61.557 135-136z" fill="#ffc34d"/><path d="m256 121h-75v90h75 75v-90z" fill="#fd3"/><path d="m256 121h75v90h-75z" fill="#ffc34d"/><path d="m287.377 340.316-31.377-41.806-31.377 41.806-49.468 16.919 30.088 42.759.791 52.28 49.966-15.395 49.966 15.395.791-52.28 30.088-42.759z" fill="#ffc34d"/><path d="m306.757 399.994 30.088-42.759-49.468-16.919-31.377-41.806v138.369l49.966 15.395z" fill="#f93"/><path d="m301 0h-45-45l-15 30v91l15 30h45 45l15-30v-91z" fill="#f9b"/><path d="m316 121v-91l-15-30h-45v151h45z" fill="#f69"/><path d="m301 0h60v151h-60z" fill="#e62e6b"/><path d="m151 0h60v151h-60z" fill="#f69"/></g></svg> 
